<mxfile host="app.diagrams.net" modified="2022-07-21T18:03:26.917Z" agent="5.0 (Windows NT 10.0; Win64; x64) AppleWebKit/537.36 (KHTML, like Gecko) Chrome/103.0.0.0 Safari/537.36" etag="a8B9wHVm-RVyot56TcPe" version="20.1.4" type="github">
  <diagram id="2WDbaUwblFmEULSqzccV" name="Page-1">
    <mxGraphModel dx="1697" dy="949" grid="1" gridSize="10" guides="1" tooltips="1" connect="1" arrows="1" fold="1" page="1" pageScale="1" pageWidth="1100" pageHeight="850" math="0" shadow="0">
      <root>
        <mxCell id="0" />
        <mxCell id="1" parent="0" />
        <mxCell id="p9uKidsyLBFloci6g_Ar-22" value="" style="rounded=1;whiteSpace=wrap;html=1;shadow=0;fontSize=23;fontColor=#000099;strokeColor=#009999;strokeWidth=5;fillColor=#99FFFF;" parent="1" vertex="1">
          <mxGeometry x="4" y="4" width="1086" height="846" as="geometry" />
        </mxCell>
        <mxCell id="p9uKidsyLBFloci6g_Ar-7" value="" style="rounded=1;whiteSpace=wrap;html=1;fillColor=#1ba1e2;fontColor=#ffffff;strokeColor=#006EAF;" parent="1" vertex="1">
          <mxGeometry x="300" y="30" width="760" height="800" as="geometry" />
        </mxCell>
        <mxCell id="p9uKidsyLBFloci6g_Ar-1" value="P" style="rounded=1;whiteSpace=wrap;html=1;fillColor=#ffe6cc;strokeColor=#d79b00;" parent="1" vertex="1">
          <mxGeometry x="30" y="70" width="170" height="200" as="geometry" />
        </mxCell>
        <mxCell id="p9uKidsyLBFloci6g_Ar-2" value="" style="rounded=1;whiteSpace=wrap;html=1;fillColor=#fff2cc;strokeColor=#d6b656;" parent="1" vertex="1">
          <mxGeometry x="50" y="435" width="170" height="223" as="geometry" />
        </mxCell>
        <mxCell id="p9uKidsyLBFloci6g_Ar-62" style="edgeStyle=orthogonalEdgeStyle;rounded=1;orthogonalLoop=1;jettySize=auto;html=1;entryX=1;entryY=0.25;entryDx=0;entryDy=0;fontFamily=Verdana;fontSize=31;fontColor=#FFFFFF;startArrow=diamond;startFill=0;strokeColor=#4D4D4D;strokeWidth=3;" parent="1" source="p9uKidsyLBFloci6g_Ar-3" target="p9uKidsyLBFloci6g_Ar-41" edge="1">
          <mxGeometry relative="1" as="geometry" />
        </mxCell>
        <mxCell id="p9uKidsyLBFloci6g_Ar-3" value="" style="rounded=1;whiteSpace=wrap;html=1;fillColor=#f0a30a;fontColor=#000000;strokeColor=#BD7000;" parent="1" vertex="1">
          <mxGeometry x="378" y="99" width="190" height="109" as="geometry" />
        </mxCell>
        <mxCell id="p9uKidsyLBFloci6g_Ar-4" value="" style="rounded=1;whiteSpace=wrap;html=1;fillColor=#e51400;fontColor=#ffffff;strokeColor=#B20000;" parent="1" vertex="1">
          <mxGeometry x="368" y="240" width="210" height="500" as="geometry" />
        </mxCell>
        <mxCell id="p9uKidsyLBFloci6g_Ar-59" style="edgeStyle=orthogonalEdgeStyle;rounded=1;orthogonalLoop=1;jettySize=auto;html=1;fontFamily=Verdana;fontSize=31;fontColor=#FFFFFF;startArrow=diamond;startFill=0;strokeColor=#4D4D4D;strokeWidth=3;" parent="1" source="p9uKidsyLBFloci6g_Ar-5" target="p9uKidsyLBFloci6g_Ar-2" edge="1">
          <mxGeometry relative="1" as="geometry" />
        </mxCell>
        <mxCell id="p9uKidsyLBFloci6g_Ar-5" value="&lt;font style=&quot;font-size: 19px;&quot;&gt;&lt;b&gt;SignalR&lt;/b&gt;&lt;/font&gt;" style="rounded=1;whiteSpace=wrap;html=1;" parent="1" vertex="1">
          <mxGeometry x="490" y="750" width="230" height="45" as="geometry" />
        </mxCell>
        <mxCell id="p9uKidsyLBFloci6g_Ar-6" value="" style="rounded=1;whiteSpace=wrap;html=1;fillColor=#6d8764;fontColor=#ffffff;strokeColor=#3A5431;" parent="1" vertex="1">
          <mxGeometry x="660" y="120" width="360" height="620" as="geometry" />
        </mxCell>
        <mxCell id="p9uKidsyLBFloci6g_Ar-58" style="edgeStyle=orthogonalEdgeStyle;rounded=1;orthogonalLoop=1;jettySize=auto;html=1;entryX=0.5;entryY=0;entryDx=0;entryDy=0;fontFamily=Verdana;fontSize=31;fontColor=#FFFFFF;startArrow=diamond;startFill=0;strokeColor=#4D4D4D;strokeWidth=3;" parent="1" source="p9uKidsyLBFloci6g_Ar-10" target="p9uKidsyLBFloci6g_Ar-5" edge="1">
          <mxGeometry relative="1" as="geometry" />
        </mxCell>
        <mxCell id="p9uKidsyLBFloci6g_Ar-63" style="edgeStyle=orthogonalEdgeStyle;rounded=1;orthogonalLoop=1;jettySize=auto;html=1;entryX=0.013;entryY=0.833;entryDx=0;entryDy=0;entryPerimeter=0;fontFamily=Verdana;fontSize=31;fontColor=#FFFFFF;startArrow=classic;startFill=1;endArrow=diamond;endFill=0;strokeColor=#4D4D4D;strokeWidth=3;" parent="1" source="p9uKidsyLBFloci6g_Ar-10" target="p9uKidsyLBFloci6g_Ar-6" edge="1">
          <mxGeometry relative="1" as="geometry" />
        </mxCell>
        <mxCell id="p9uKidsyLBFloci6g_Ar-10" value="&lt;font style=&quot;font-size: 15px;&quot;&gt;&lt;b&gt;CosmosDB&lt;br&gt;Change&lt;br&gt;Feed&lt;/b&gt;&lt;/font&gt;" style="rounded=1;whiteSpace=wrap;html=1;" parent="1" vertex="1">
          <mxGeometry x="393" y="590" width="160" height="93" as="geometry" />
        </mxCell>
        <mxCell id="p9uKidsyLBFloci6g_Ar-65" style="edgeStyle=orthogonalEdgeStyle;rounded=1;orthogonalLoop=1;jettySize=auto;html=1;entryX=0.012;entryY=0.468;entryDx=0;entryDy=0;entryPerimeter=0;fontFamily=Verdana;fontSize=31;fontColor=#FFFFFF;startArrow=classic;startFill=1;endArrow=diamond;endFill=0;strokeColor=#4D4D4D;strokeWidth=3;" parent="1" source="p9uKidsyLBFloci6g_Ar-11" target="p9uKidsyLBFloci6g_Ar-6" edge="1">
          <mxGeometry relative="1" as="geometry" />
        </mxCell>
        <mxCell id="p9uKidsyLBFloci6g_Ar-11" value="&lt;font style=&quot;font-size: 15px;&quot;&gt;&lt;b&gt;Read-Only API&lt;/b&gt;&lt;/font&gt;" style="rounded=1;whiteSpace=wrap;html=1;" parent="1" vertex="1">
          <mxGeometry x="390" y="367.5" width="160" height="86" as="geometry" />
        </mxCell>
        <mxCell id="p9uKidsyLBFloci6g_Ar-64" style="edgeStyle=orthogonalEdgeStyle;rounded=1;orthogonalLoop=1;jettySize=auto;html=1;exitX=1;exitY=0.5;exitDx=0;exitDy=0;entryX=0.013;entryY=0.651;entryDx=0;entryDy=0;entryPerimeter=0;fontFamily=Verdana;fontSize=31;fontColor=#FFFFFF;startArrow=classic;startFill=1;endArrow=diamond;endFill=0;strokeColor=#4D4D4D;strokeWidth=3;" parent="1" source="p9uKidsyLBFloci6g_Ar-12" target="p9uKidsyLBFloci6g_Ar-6" edge="1">
          <mxGeometry relative="1" as="geometry" />
        </mxCell>
        <mxCell id="p9uKidsyLBFloci6g_Ar-12" value="&lt;font style=&quot;font-size: 15px;&quot;&gt;&lt;b&gt;Full REST API&lt;/b&gt;&lt;/font&gt;" style="rounded=1;whiteSpace=wrap;html=1;" parent="1" vertex="1">
          <mxGeometry x="393" y="485.5" width="160" height="78" as="geometry" />
        </mxCell>
        <mxCell id="p9uKidsyLBFloci6g_Ar-16" value="&lt;div style=&quot;&quot;&gt;&lt;span style=&quot;font-size: 23px; color: rgb(255, 217, 102); background-color: initial;&quot;&gt;&lt;b&gt;Azure Functions&lt;/b&gt;&lt;/span&gt;&lt;/div&gt;" style="text;html=1;strokeColor=none;fillColor=none;align=center;verticalAlign=middle;whiteSpace=wrap;rounded=1;shadow=0;fontSize=18;fontColor=#000000;" parent="1" vertex="1">
          <mxGeometry x="432" y="271" width="80" height="30" as="geometry" />
        </mxCell>
        <mxCell id="p9uKidsyLBFloci6g_Ar-17" value="&lt;font color=&quot;#000099&quot;&gt;Azure Blob&lt;br&gt;Storage&lt;br&gt;&lt;/font&gt;" style="text;html=1;strokeColor=none;fillColor=none;align=center;verticalAlign=middle;whiteSpace=wrap;rounded=1;shadow=0;fontSize=23;fontColor=#FFD966;" parent="1" vertex="1">
          <mxGeometry x="441" y="139" width="60" height="30" as="geometry" />
        </mxCell>
        <mxCell id="p9uKidsyLBFloci6g_Ar-20" value="&lt;font style=&quot;font-size: 16px;&quot; color=&quot;#000000&quot;&gt;&lt;b&gt;MAUI -Blazor&lt;br&gt;&lt;br&gt;Multi-tenant&lt;br&gt;Content&lt;br&gt;Editor&lt;br&gt;(Full CRUD)&lt;/b&gt;&lt;br&gt;&lt;/font&gt;" style="text;html=1;strokeColor=none;fillColor=none;align=center;verticalAlign=middle;whiteSpace=wrap;rounded=1;shadow=0;" parent="1" vertex="1">
          <mxGeometry x="104" y="528" width="60" height="30" as="geometry" />
        </mxCell>
        <mxCell id="p9uKidsyLBFloci6g_Ar-23" value="&lt;font style=&quot;&quot; color=&quot;#ffffff&quot;&gt;&lt;b style=&quot;&quot;&gt;&lt;font style=&quot;font-size: 22px;&quot;&gt;CosmosDB&lt;/font&gt;&lt;br&gt;&lt;span style=&quot;font-size: 17px;&quot;&gt;(Multi-Tenant)&lt;/span&gt;&lt;br&gt;&lt;/b&gt;&lt;/font&gt;" style="text;html=1;strokeColor=none;fillColor=none;align=center;verticalAlign=middle;whiteSpace=wrap;rounded=1;shadow=0;fontSize=19;fontColor=#000099;" parent="1" vertex="1">
          <mxGeometry x="760" y="150" width="140" height="30" as="geometry" />
        </mxCell>
        <mxCell id="p9uKidsyLBFloci6g_Ar-24" value="&lt;font size=&quot;1&quot; color=&quot;#4d4d4d&quot;&gt;&lt;b style=&quot;font-size: 15px;&quot;&gt;Articles&lt;/b&gt;&lt;/font&gt;" style="rounded=1;whiteSpace=wrap;html=1;shadow=0;fontSize=23;fontColor=#FFFFFF;strokeColor=#009999;strokeWidth=1;fillColor=#99FFFF;" parent="1" vertex="1">
          <mxGeometry x="717.5" y="205" width="120" height="60" as="geometry" />
        </mxCell>
        <mxCell id="p9uKidsyLBFloci6g_Ar-25" value="&lt;font size=&quot;1&quot; color=&quot;#4d4d4d&quot;&gt;&lt;b style=&quot;font-size: 15px;&quot;&gt;Websites&lt;/b&gt;&lt;/font&gt;" style="rounded=1;whiteSpace=wrap;html=1;shadow=0;fontSize=23;fontColor=#FFFFFF;strokeColor=#009999;strokeWidth=1;fillColor=#99FFFF;" parent="1" vertex="1">
          <mxGeometry x="717.5" y="273" width="120" height="60" as="geometry" />
        </mxCell>
        <mxCell id="p9uKidsyLBFloci6g_Ar-26" value="&lt;font color=&quot;#4d4d4d&quot;&gt;&lt;span style=&quot;font-size: 15px;&quot;&gt;&lt;b&gt;Magazine&lt;/b&gt;&lt;/span&gt;&lt;/font&gt;" style="rounded=1;whiteSpace=wrap;html=1;shadow=0;fontSize=23;fontColor=#FFFFFF;strokeColor=#009999;strokeWidth=1;fillColor=#99FFFF;" parent="1" vertex="1">
          <mxGeometry x="717.5" y="340" width="120" height="60" as="geometry" />
        </mxCell>
        <mxCell id="p9uKidsyLBFloci6g_Ar-27" value="&lt;font color=&quot;#4d4d4d&quot;&gt;&lt;span style=&quot;font-size: 15px;&quot;&gt;&lt;b&gt;Social Media&lt;/b&gt;&lt;/span&gt;&lt;/font&gt;" style="rounded=1;whiteSpace=wrap;html=1;shadow=0;fontSize=23;fontColor=#FFFFFF;strokeColor=#009999;strokeWidth=1;fillColor=#99FFFF;" parent="1" vertex="1">
          <mxGeometry x="717.5" y="410" width="120" height="60" as="geometry" />
        </mxCell>
        <mxCell id="p9uKidsyLBFloci6g_Ar-28" value="&lt;font color=&quot;#4d4d4d&quot;&gt;&lt;span style=&quot;font-size: 15px;&quot;&gt;&lt;b&gt;ScreenPlays&lt;/b&gt;&lt;/span&gt;&lt;/font&gt;" style="rounded=1;whiteSpace=wrap;html=1;shadow=0;fontSize=23;fontColor=#FFFFFF;strokeColor=#009999;strokeWidth=1;fillColor=#99FFFF;" parent="1" vertex="1">
          <mxGeometry x="717.5" y="480" width="120" height="60" as="geometry" />
        </mxCell>
        <mxCell id="p9uKidsyLBFloci6g_Ar-29" value="&lt;font color=&quot;#4d4d4d&quot;&gt;&lt;span style=&quot;font-size: 15px;&quot;&gt;&lt;b&gt;Cookbooks&lt;/b&gt;&lt;/span&gt;&lt;/font&gt;" style="rounded=1;whiteSpace=wrap;html=1;shadow=0;fontSize=23;fontColor=#FFFFFF;strokeColor=#009999;strokeWidth=1;fillColor=#99FFFF;" parent="1" vertex="1">
          <mxGeometry x="717.5" y="550" width="120" height="60" as="geometry" />
        </mxCell>
        <mxCell id="p9uKidsyLBFloci6g_Ar-37" value="P" style="rounded=1;whiteSpace=wrap;html=1;fillColor=#ffe6cc;strokeColor=#d79b00;" parent="1" vertex="1">
          <mxGeometry x="40" y="80" width="170" height="200" as="geometry" />
        </mxCell>
        <mxCell id="p9uKidsyLBFloci6g_Ar-38" value="P" style="rounded=1;whiteSpace=wrap;html=1;fillColor=#ffe6cc;strokeColor=#d79b00;" parent="1" vertex="1">
          <mxGeometry x="50" y="90" width="170" height="200" as="geometry" />
        </mxCell>
        <mxCell id="p9uKidsyLBFloci6g_Ar-39" value="P" style="rounded=1;whiteSpace=wrap;html=1;fillColor=#ffe6cc;strokeColor=#d79b00;" parent="1" vertex="1">
          <mxGeometry x="60" y="100" width="170" height="200" as="geometry" />
        </mxCell>
        <mxCell id="p9uKidsyLBFloci6g_Ar-40" value="P" style="rounded=1;whiteSpace=wrap;html=1;fillColor=#ffe6cc;strokeColor=#d79b00;" parent="1" vertex="1">
          <mxGeometry x="70" y="110" width="170" height="200" as="geometry" />
        </mxCell>
        <mxCell id="p9uKidsyLBFloci6g_Ar-55" style="edgeStyle=orthogonalEdgeStyle;rounded=1;orthogonalLoop=1;jettySize=auto;html=1;exitX=1;exitY=0.75;exitDx=0;exitDy=0;entryX=0;entryY=0.5;entryDx=0;entryDy=0;fontFamily=Verdana;fontSize=12;fontColor=#FFFFFF;startArrow=diamond;startFill=0;strokeColor=#4D4D4D;strokeWidth=3;" parent="1" source="p9uKidsyLBFloci6g_Ar-41" target="p9uKidsyLBFloci6g_Ar-11" edge="1">
          <mxGeometry relative="1" as="geometry" />
        </mxCell>
        <mxCell id="p9uKidsyLBFloci6g_Ar-60" style="edgeStyle=orthogonalEdgeStyle;rounded=1;orthogonalLoop=1;jettySize=auto;html=1;fontFamily=Verdana;fontSize=31;fontColor=#FFFFFF;startArrow=classic;startFill=1;strokeColor=#4D4D4D;strokeWidth=3;endArrow=diamond;endFill=0;" parent="1" source="p9uKidsyLBFloci6g_Ar-41" target="p9uKidsyLBFloci6g_Ar-5" edge="1">
          <mxGeometry relative="1" as="geometry">
            <Array as="points">
              <mxPoint x="630" y="220" />
            </Array>
          </mxGeometry>
        </mxCell>
        <mxCell id="p9uKidsyLBFloci6g_Ar-41" value="P" style="rounded=1;whiteSpace=wrap;html=1;fillColor=#ffe6cc;strokeColor=#d79b00;" parent="1" vertex="1">
          <mxGeometry x="80" y="120" width="170" height="200" as="geometry" />
        </mxCell>
        <mxCell id="p9uKidsyLBFloci6g_Ar-13" value="&lt;font style=&quot;font-size: 16px;&quot; color=&quot;#000000&quot;&gt;&lt;b&gt;Blazor&lt;br&gt;Web&lt;br&gt;Assembly&lt;br&gt;&lt;br&gt;Public&lt;br&gt;Facing&lt;br&gt;Sites&lt;br&gt;(Read-Only)&lt;/b&gt;&lt;br&gt;&lt;/font&gt;" style="text;html=1;strokeColor=none;fillColor=none;align=center;verticalAlign=middle;whiteSpace=wrap;rounded=1;shadow=0;" parent="1" vertex="1">
          <mxGeometry x="133" y="205" width="60" height="30" as="geometry" />
        </mxCell>
        <mxCell id="p9uKidsyLBFloci6g_Ar-46" value="&lt;font color=&quot;#4d4d4d&quot;&gt;&lt;span style=&quot;font-size: 15px;&quot;&gt;&lt;b&gt;Job Posts&lt;/b&gt;&lt;/span&gt;&lt;/font&gt;" style="rounded=1;whiteSpace=wrap;html=1;shadow=0;fontSize=23;fontColor=#FFFFFF;strokeColor=#009999;strokeWidth=1;fillColor=#99FFFF;" parent="1" vertex="1">
          <mxGeometry x="847.5" y="205" width="120" height="60" as="geometry" />
        </mxCell>
        <mxCell id="p9uKidsyLBFloci6g_Ar-47" value="&lt;font color=&quot;#4d4d4d&quot;&gt;&lt;span style=&quot;font-size: 15px;&quot;&gt;&lt;b&gt;Poetry&lt;/b&gt;&lt;/span&gt;&lt;/font&gt;" style="rounded=1;whiteSpace=wrap;html=1;shadow=0;fontSize=23;fontColor=#FFFFFF;strokeColor=#009999;strokeWidth=1;fillColor=#99FFFF;" parent="1" vertex="1">
          <mxGeometry x="847.5" y="273" width="120" height="60" as="geometry" />
        </mxCell>
        <mxCell id="p9uKidsyLBFloci6g_Ar-48" value="&lt;font color=&quot;#4d4d4d&quot;&gt;&lt;span style=&quot;font-size: 15px;&quot;&gt;&lt;b&gt;Flash Fiction&lt;/b&gt;&lt;/span&gt;&lt;/font&gt;" style="rounded=1;whiteSpace=wrap;html=1;shadow=0;fontSize=23;fontColor=#FFFFFF;strokeColor=#009999;strokeWidth=1;fillColor=#99FFFF;" parent="1" vertex="1">
          <mxGeometry x="847.5" y="340" width="120" height="60" as="geometry" />
        </mxCell>
        <mxCell id="p9uKidsyLBFloci6g_Ar-49" value="&lt;font color=&quot;#4d4d4d&quot;&gt;&lt;span style=&quot;font-size: 15px;&quot;&gt;&lt;b&gt;Kindle Vella&lt;/b&gt;&lt;/span&gt;&lt;/font&gt;" style="rounded=1;whiteSpace=wrap;html=1;shadow=0;fontSize=23;fontColor=#FFFFFF;strokeColor=#009999;strokeWidth=1;fillColor=#99FFFF;" parent="1" vertex="1">
          <mxGeometry x="847.5" y="410" width="120" height="60" as="geometry" />
        </mxCell>
        <mxCell id="p9uKidsyLBFloci6g_Ar-50" value="&lt;font color=&quot;#4d4d4d&quot;&gt;&lt;span style=&quot;font-size: 15px;&quot;&gt;&lt;b&gt;Short Stories&lt;/b&gt;&lt;/span&gt;&lt;/font&gt;" style="rounded=1;whiteSpace=wrap;html=1;shadow=0;fontSize=23;fontColor=#FFFFFF;strokeColor=#009999;strokeWidth=1;fillColor=#99FFFF;" parent="1" vertex="1">
          <mxGeometry x="847.5" y="480" width="120" height="60" as="geometry" />
        </mxCell>
        <mxCell id="p9uKidsyLBFloci6g_Ar-51" value="&lt;font color=&quot;#4d4d4d&quot;&gt;&lt;span style=&quot;font-size: 15px;&quot;&gt;&lt;b&gt;Novels&lt;/b&gt;&lt;/span&gt;&lt;/font&gt;" style="rounded=1;whiteSpace=wrap;html=1;shadow=0;fontSize=23;fontColor=#FFFFFF;strokeColor=#009999;strokeWidth=1;fillColor=#99FFFF;" parent="1" vertex="1">
          <mxGeometry x="847.5" y="550" width="120" height="60" as="geometry" />
        </mxCell>
        <mxCell id="p9uKidsyLBFloci6g_Ar-52" value="&lt;div style=&quot;font-size: 12px;&quot;&gt;&lt;font style=&quot;font-size: 12px;&quot;&gt;&lt;font color=&quot;#ffffff&quot;&gt;&amp;nbsp;&lt;/font&gt;&lt;b style=&quot;&quot;&gt;&lt;font style=&quot;font-size: 14px;&quot; color=&quot;#00ffff&quot;&gt;Hierarchical partition keys - three levels&lt;/font&gt;&lt;/b&gt;&lt;/font&gt;&lt;/div&gt;" style="text;html=1;strokeColor=none;fillColor=none;align=left;verticalAlign=middle;whiteSpace=wrap;rounded=1;shadow=0;fontSize=22;fontColor=#4D4D4D;" parent="1" vertex="1">
          <mxGeometry x="705" y="625" width="290" height="30" as="geometry" />
        </mxCell>
        <mxCell id="p9uKidsyLBFloci6g_Ar-53" value="&lt;div style=&quot;&quot;&gt;&lt;font face=&quot;Verdana&quot; color=&quot;#ffffff&quot; style=&quot;font-size: 12px;&quot;&gt;List&amp;lt;string&amp;gt; subpartitionKeyPaths =&amp;nbsp;&lt;/font&gt;&lt;/div&gt;&lt;div style=&quot;&quot;&gt;&lt;font face=&quot;Verdana&quot; color=&quot;#ffffff&quot; style=&quot;font-size: 12px;&quot;&gt;&lt;span style=&quot;&quot;&gt; &lt;/span&gt;new List&amp;lt;string&amp;gt; {&amp;nbsp;&lt;/font&gt;&lt;/div&gt;&lt;div style=&quot;&quot;&gt;&lt;font face=&quot;Verdana&quot; color=&quot;#ffffff&quot; style=&quot;font-size: 12px;&quot;&gt;&amp;nbsp; &amp;nbsp;&amp;nbsp;&lt;span style=&quot;&quot;&gt; &lt;/span&gt;&lt;span style=&quot;&quot;&gt; &lt;/span&gt;&quot;/TenantId&quot;,&amp;nbsp;&lt;span style=&quot;background-color: initial;&quot;&gt;&amp;nbsp;&quot;/PublicationId&quot;,&amp;nbsp;&amp;nbsp;&lt;/span&gt;&lt;span style=&quot;background-color: initial;&quot;&gt;&quot;/UserId&quot;,&lt;/span&gt;&lt;/font&gt;&lt;/div&gt;&lt;div style=&quot;&quot;&gt;&lt;font face=&quot;Verdana&quot; color=&quot;#ffffff&quot; style=&quot;font-size: 12px;&quot;&gt;};&lt;/font&gt;&lt;/div&gt;" style="text;html=1;strokeColor=none;fillColor=none;align=left;verticalAlign=middle;whiteSpace=wrap;rounded=1;shadow=0;fontFamily=Times New Roman;fontSize=12;fontColor=#FFFF00;" parent="1" vertex="1">
          <mxGeometry x="705" y="678" width="275" height="30" as="geometry" />
        </mxCell>
        <mxCell id="p9uKidsyLBFloci6g_Ar-56" value="&lt;font style=&quot;font-size: 31px;&quot;&gt;AZURE&lt;/font&gt;" style="text;html=1;strokeColor=none;fillColor=none;align=center;verticalAlign=middle;whiteSpace=wrap;rounded=1;shadow=0;fontFamily=Verdana;fontSize=12;fontColor=#FFFFFF;" parent="1" vertex="1">
          <mxGeometry x="590" y="50" width="60" height="30" as="geometry" />
        </mxCell>
        <mxCell id="p9uKidsyLBFloci6g_Ar-66" value="Publication Types" style="text;html=1;strokeColor=none;fillColor=none;align=center;verticalAlign=middle;whiteSpace=wrap;rounded=1;shadow=0;fontFamily=Verdana;fontSize=31;fontColor=#FFFFFF;rotation=90;flipH=0;flipV=0;" parent="1" vertex="1">
          <mxGeometry x="793" y="390" width="400" height="30" as="geometry" />
        </mxCell>
        <mxCell id="p9uKidsyLBFloci6g_Ar-67" value="&lt;font style=&quot;font-size: 25px;&quot; color=&quot;#000033&quot;&gt;Blazor Clients&lt;/font&gt;" style="text;html=1;strokeColor=none;fillColor=none;align=center;verticalAlign=middle;whiteSpace=wrap;rounded=0;shadow=0;fontFamily=Verdana;fontSize=31;fontColor=#FFFFFF;" parent="1" vertex="1">
          <mxGeometry x="105" y="355" width="60" height="30" as="geometry" />
        </mxCell>
        <mxCell id="p9uKidsyLBFloci6g_Ar-57" style="edgeStyle=orthogonalEdgeStyle;rounded=1;orthogonalLoop=1;jettySize=auto;html=1;fontFamily=Verdana;fontSize=31;fontColor=#FFFFFF;startArrow=diamond;startFill=0;strokeColor=#4D4D4D;strokeWidth=3;" parent="1" source="p9uKidsyLBFloci6g_Ar-2" target="p9uKidsyLBFloci6g_Ar-12" edge="1">
          <mxGeometry relative="1" as="geometry" />
        </mxCell>
      </root>
    </mxGraphModel>
  </diagram>
</mxfile>
